# AST/ASF file generated using VICON BodyLanguage
# -----------------------------------------------
:version 1.10
:name VICON
:units
  mass 1.0
  length 0.45
  angle deg
:documentation
   .ast/.asf automatically generated from VICON data using
   VICON BodyBuilder and BodyLanguage model FoxedUp or BRILLIANT.MOD
:root
   order TX TY TZ RX RY RZ
   axis XYZ
   position 0 0 0  
   orientation 0 0 0 
:bonedata
  begin
     id 1 
     name lhipjoint
     direction 0.660183 -0.676772 0.325788 
     length 2.75133 
     axis 0 0 0  XYZ
  end
  begin
     id 2 
     name lfemur
     direction 0.34202 -0.939693 0  
     length 7.70317  
     axis 0 0 20  XYZ
    dof rx ry rz
    limits (-160.0 20.0)
           (-70.0 70.0)
           (-60.0 70.0)
  end
  begin
     id 3 
     name ltibia
     direction 0.342105 -0.939662 0   
     length 7.18701   
     axis 0 0 20   XYZ
    dof rx
    limits (-10.0 170.0)
  end
  begin
     id 4 
     name lfoot
     direction 0.14163 -0.389126 0.910232   
     length 2.41719   
     axis -90 7.62852e-016 20   XYZ
    dof rx rz
    limits (-45.0 90.0)
           (-70.0 20.0)
  end
  begin
     id 5 
     name ltoes
     direction 1.53533e-011 -4.21926e-011 1   
     length 1.18611   
     axis -90 7.62852e-016 20   XYZ
    dof rx
    limits (-90.0 20.0)
  end
  begin
     id 6 
     name rhipjoint
     direction -0.6658 -0.67229 0.323631   
     length 2.76968  
     axis 0 0 0  XYZ 
  end
  begin
     id 7 
     name rfemur
     direction -0.34202 -0.939693 0   
     length 7.92547   
     axis 0 0 -20   XYZ
    dof rx ry rz
    limits (-160.0 20.0)
           (-70.0 70.0)
           (-70.0 60.0)
  end
  begin
     id 8 
     name rtibia
     direction -0.342022 -0.939692 0   
     length 7.22641   
     axis 0 0 -20   XYZ
    dof rx
    limits (-10.0 170.0)
 end
 begin
     id 9 
     name rfoot
     direction -0.105675 -0.29034 0.951071   
     length 2.48149  
     axis -90 -7.62852e-016 -20   XYZ
    dof rx rz
    limits (-45.0 90.0)
           (-20.0 70.0)
  end
  begin
     id 10 
     name rtoes
     direction -1.5349e-011 -4.21859e-011 1   
     length 1.23343   
     axis -90 -7.62852e-016 -20   XYZ
    dof rx
    limits (-90.0 20.0)
  end
  begin
     id 11 
     name lowerback
     direction 0.0104173 0.993624 -0.112266   
     length 2.00527   
     axis 0 0 0   XYZ
    dof rx ry rz
    limits (-20.0 45.0)
           (-30.0 30.0)
           (-30.0 30.0)
  end
  begin
     id 12 
     name upperback
     direction 0.00733149 0.999856 -0.0152913   
     length 2.01385   
     axis 0 0 0   XYZ
    dof rx ry rz
    limits (-20.0 45.0)
           (-30.0 30.0)
           (-30.0 30.0)
  end
  begin
     id 13 
     name thorax
     direction 0.0026304 0.999318 0.036841   
     length 2.03734   
     axis 0 0 0   XYZ
    dof rx ry rz
    limits (-20.0 45.0)
           (-30.0 30.0)
           (-30.0 30.0)
  end
  begin
     id 14 
     name lowerneck
     direction 0.0293154 0.998757 0.0403082   
     length 1.65303   
     axis 0 0 0   XYZ
    dof rx ry rz
    limits (-20.0 45.0)
           (-30.0 30.0)
           (-30.0 30.0)
  end
  begin
     id 15 
     name upperneck
     direction -0.0376619 0.998184 -0.0470083   
     length 1.60926   
     axis 0 0 0   XYZ
    dof rx ry rz
    limits (-20.0 45.0)
           (-30.0 30.0)
           (-30.0 30.0)
  end
  begin
     id 16
     name head
     direction -0.0170133 0.999635 -0.0209778  
     length 1.73625  
     axis 0 0 0   XYZ
    dof rx ry rz
    limits (-20.0 45.0)
           (-30.0 30.0)
           (-30.0 30.0)
  end
  begin
     id 17 
     name lclavicle
     direction 0.919857 0.39181 -0.0186333  
     length 3.75313  
     axis 0 0 0   XYZ
    dof ry rz
    limits (-20.0 10.0)
           (0.0 20.0)
  end
  begin
     id 18 
     name lhumerus
     direction 1 -4.48988e-011 1.44029e-027   
     length 5.49313   
     axis 180 -30 -90   XYZ
    dof rx ry rz
    limits (-60.0 90.0)
           (-90.0 90.0)
           (-90.0 90.0)
  end
  begin
     id 19
     name lradius
     direction 1 -4.48924e-011 7.46281e-027   
     length 3.29037   
     axis 180 -30 -90   XYZ
    dof rx
    limits (-10.0 170.0)
  end
  begin
     id 20
     name lwrist
     direction 1 -4.48955e-011 2.19879e-026   
     length 1.64519   
     axis -1.34358e-014 90 90   XYZ
    dof ry
    limits (-180.0 0.0)
 end
  begin
     id 21 
     name lhand
     direction 1 -4.48978e-011 4.39747e-026   
     length 0.729656   
     axis -2.80598e-014 90 90   XYZ
    dof rx rz
    limits (-90.0 90.0)
           (-45.0 45.0)
  end
  begin
     id 22 
     name lfingers
     direction 1 -4.49071e-011 8.79411e-026   
     length 0.588268   
     axis -5.61193e-014 90 90   XYZ
    dof rx
    limits (0.0 90.0)
  end
  begin
     id 23
     name lthumb
     direction 0.707107 -6.34817e-011 0.707107   
     length 0.844638   
     axis -90 45 -9.86923e-015   XYZ
    dof rx rz
    limits (-45.0 45.0)
           (-45.0 45.0)
  end
  begin
     id 24 
     name rclavicle
     direction -0.919898 0.388279 0.0550233   
     length 3.7171  
     axis 0 0 0   XYZ 
    dof ry rz
    limits (-10.0 20.0)
           (-20.0 0.0)
  end
  begin
     id 25 
     name rhumerus
     direction -1 -4.48968e-011 9.98372e-028  
     length 5.23684   
     axis 180 30 90   XYZ
    dof rx ry rz
    limits (-90.0 60.0)
           (-90.0 90.0)
           (-90.0 90.0)
  end
  begin
     id 26 
     name rradius
     direction -1 -4.48956e-011 1.01023e-026   
     length 3.38251   
     axis 180 30 90   XYZ
    dof rx
    limits (-10.0 170.0)
  end
  begin
     id 27 
     name rwrist
     direction -1 -4.4892e-011 2.19886e-026   
     length 1.69126   
     axis -1.34358e-014 -90 -90   XYZ
    dof ry
    limits (-180.0 0.0)
  end
  begin
     id 28
     name rhand
     direction -1 -4.49024e-011 4.39727e-026   
     length 0.691454   
     axis -2.80598e-014 -90 -90   XYZ
    dof rx rz
    limits (-90.0 90.0)
           (-45.0 45.0)
  end
  begin
     id 29
     name rfingers
     direction -1 -4.49097e-011 8.79388e-026   
     length 0.557468   
     axis -5.61193e-014 -90 -90   XYZ
    dof rx
    limits (0.0 90.0)
  end
  begin
     id 30
     name rthumb
     direction -0.707107 -6.34938e-011 0.707107   
     length 0.800416   
     axis -90 -45 9.86923e-015   XYZ
    dof rx rz
    limits (-45.0 45.0)
           (-45.0 45.0)
  end
:hierarchy
  begin
    root lhipjoint rhipjoint lowerback
    lhipjoint lfemur
    lfemur ltibia
    ltibia lfoot
    lfoot ltoes
    rhipjoint rfemur
    rfemur rtibia
    rtibia rfoot
    rfoot rtoes
    lowerback upperback
    upperback thorax
    thorax lowerneck lclavicle rclavicle
    lowerneck upperneck
    upperneck head
    lclavicle lhumerus
    lhumerus lradius
    lradius lwrist
    lwrist lhand lthumb
    lhand lfingers
    rclavicle rhumerus
    rhumerus rradius
    rradius rwrist
    rwrist rhand rthumb
    rhand rfingers
  end

#!OML:ASF H:\BabyWalks\Project 1\Capture day 1\Session 1\baby.ASF
:FULLY-SPECIFIED
:DEGREES
143
root -31.2785 17.6138 -1.88538 -23.2718 77.8526 -26.7148
lowerback 16.9153 -0.662973 -1.1088
upperback 7.5376 -0.567473 2.43157
thorax -1.40174 -0.182676 3.28412
lowerneck -0.087408 5.29029 3.08429
upperneck 2.01839 7.19705 -6.88261
head 1.04398 3.57254 -2.62796
rclavicle 3.67752e-015 -2.14687e-014
rhumerus -41.883 19.989 -82.3654
rradius 40.7105
rwrist -1.33367
rhand -2.95268 -17.307
rfingers 7.12502
rthumb 22.7594 -45.9845
lclavicle 3.67752e-015 -2.14687e-014
lhumerus -45.1863 -0.611568 81.949
lradius 49.2244
lwrist 4.44511
lhand 2.31879 12.8875
lfingers 7.12502
lthumb 27.8094 40.8498
rfemur 2.84666 0.839887 27.3793
rtibia 14.4946
rfoot -19.541 -20.7928
rtoes 1.10753
lfemur -24.4642 5.79313 -13.7303
ltibia 37.406
lfoot -13.9952 5.30168
ltoes -6.33682
144
root -31.2707 17.61 -1.8856 -23.5321 77.8951 -27.0479
lowerback 16.9202 -0.647176 -1.05766
upperback 7.51885 -0.539641 2.42744
thorax -1.42696 -0.167452 3.24591
lowerneck -0.0949125 5.263 3.15448
upperneck 2.00766 7.15993 -6.90689
head 1.0439 3.55435 -2.64934
rclavicle -2.3556e-014 3.89618e-014
rhumerus -41.8007 19.9559 -82.3631
rradius 40.7309
rwrist -1.20004
rhand -2.90183 -17.2731
rfingers 7.12502
rthumb 22.8082 -45.9446
lclavicle -2.3556e-014 3.89618e-014
lhumerus -45.162 -0.64332 81.9227
lradius 49.1902
lwrist 4.52288
lhand 2.06192 12.8624
lfingers 7.12502
lthumb 27.5638 40.8642
rfemur 2.8354 0.688646 27.3976
rtibia 14.4416
rfoot -19.5902 -20.6814
rtoes 1.06006
lfemur -24.6329 5.79439 -13.698
ltibia 37.6243
lfoot -14.1092 5.21123
ltoes -6.38319
145
root -31.2618 17.606 -1.88596 -23.8072 77.9367 -27.3967
lowerback 16.9304 -0.638164 -1.02401
upperback 7.51259 -0.522387 2.42886
thorax -1.44057 -0.157879 3.22539
lowerneck -0.149456 5.24816 3.19549
upperneck 2.00696 7.13918 -6.92119
head 1.05439 3.54318 -2.66037
rclavicle 9.34288e-015 -8.15017e-015
rhumerus -41.6738 19.97 -82.3484
rradius 40.7441
rwrist -1.07421
rhand -2.84232 -17.2268
rfingers 7.12502
rthumb 22.8653 -45.8913
lclavicle 9.34288e-015 -8.15017e-015
lhumerus -45.1237 -0.6364 81.8976
lradius 49.1562
lwrist 4.58651
lhand 1.80927 12.8413
lfingers 7.12502
lthumb 27.3222 40.8813
rfemur 2.82786 0.537267 27.418
rtibia 14.386
rfoot -19.6362 -20.5731
rtoes 1.0203
lfemur -24.8069 5.80159 -13.6652
ltibia 37.8604
lfoot -14.2337 5.10186
ltoes -6.38826
146
root -31.2517 17.6017 -1.88638 -24.1133 77.9715 -27.7771
lowerback 16.924 -0.612966 -0.986952
upperback 7.51224 -0.483704 2.42362
thorax -1.44072 -0.137639 3.19181
lowerneck -0.17438 5.21742 3.27361
upperneck 1.99017 7.0964 -6.93873
head 1.05507 3.52198 -2.68069
rclavicle 2.18663e-014 -4.7112e-014
rhumerus -41.5424 19.9401 -82.33
rradius 40.7512
rwrist -0.946793
rhand -2.77814 -17.1733
rfingers 7.12502
rthumb 22.9269 -45.8301
lclavicle 2.18663e-014 -4.7112e-014
lhumerus -45.0797 -0.681595 81.8769
lradius 49.1208
lwrist 4.64038
lhand 1.56308 12.8263
lfingers 7.12502
lthumb 27.0867 40.9032
rfemur 2.82656 0.391058 27.4474
rtibia 14.3243
rfoot -19.6782 -20.4676
rtoes 0.976665
lfemur -24.9836 5.81629 -13.6256
ltibia 38.1128
lfoot -14.3663 4.97079
ltoes -6.3219
147
root -31.2403 17.5973 -1.88691 -24.4415 78.0011 -28.1801
lowerback 16.9302 -0.594602 -0.963704
upperback 7.51858 -0.455362 2.4225
thorax -1.43936 -0.122754 3.17244
lowerneck -0.239892 5.19985 3.3232
upperneck 1.98472 7.071 -6.94402
head 1.06563 3.50842 -2.69016
rclavicle 9.0447e-015 -7.95139e-015
rhumerus -41.376 19.9594 -82.3046
rradius 40.753
rwrist -0.837841
rhand -2.71267 -17.1201
rfingers 7.12502
rthumb 22.9897 -45.7692
lclavicle 9.0447e-015 -7.95139e-015
lhumerus -45.0323 -0.685194 81.8535
lradius 49.0882
lwrist 4.67883
lhand 1.32487 12.8224
lfingers 7.12502
lthumb 26.8588 40.9346
rfemur 2.83209 0.250936 27.4833
rtibia 14.2564
rfoot -19.7174 -20.3714
rtoes 0.929184
lfemur -25.16 5.83362 -13.5805
ltibia 38.379
lfoot -14.5273 4.82035
ltoes -6.20356
148
root -31.2273 17.5928 -1.88753 -24.795 78.0238 -28.6084
lowerback 16.9364 -0.564374 -0.931731
upperback 7.5179 -0.411056 2.40927
thorax -1.44677 -0.0996069 3.13247
lowerneck -0.270545 5.16984 3.40328
upperneck 1.97218 7.02843 -6.94062
head 1.06776 3.48725 -2.70372
rclavicle 3.67752e-015 -9.14409e-015
rhumerus -41.2369 19.9439 -82.2904
rradius 40.7688
rwrist -0.733716
rhand -2.6518 -17.0715
rfingers 7.12502
rthumb 23.0481 -45.7133
lclavicle 3.67752e-015 -9.14409e-015
lhumerus -45.0021 -0.736772 81.8251
lradius 49.0582
lwrist 4.71325
lhand 1.09263 12.8278
lfingers 7.12502
lthumb 26.6365 40.974
rfemur 2.84666 0.11804 27.5268
rtibia 14.1805
rfoot -19.7548 -20.2836
rtoes 0.887159
lfemur -25.3339 5.85316 -13.5289
ltibia 38.6568
lfoot -14.7094 4.65698
ltoes -6.02048
149
root -31.2128 17.5879 -1.88826 -25.1841 78.0409 -29.0722
lowerback 16.9495 -0.540267 -0.912262
upperback 7.52696 -0.375815 2.40187
thorax -1.4465 -0.0812157 3.10743
lowerneck -0.339994 5.15003 3.44923
upperneck 1.96676 6.99898 -6.92091
head 1.07749 3.47167 -2.70423
rclavicle 4.96962e-015 -2.88238e-014
rhumerus -41.0838 19.9822 -82.2684
rradius 40.8179
rwrist -0.658302
rhand -2.60064 -17.028
rfingers 7.12502
rthumb 23.0972 -45.6636
lclavicle 4.96962e-015 -2.88238e-014
lhumerus -44.9633 -0.746536 81.795
lradius 49.0309
lwrist 4.73358
lhand 0.871241 12.8379
lfingers 7.12502
lthumb 26.4246 41.0161
rfemur 2.87061 -0.00159639 27.5812
rtibia 14.0962
rfoot -19.7877 -20.2123
rtoes 0.853008
lfemur -25.5051 5.8709 -13.4696
ltibia 38.9429
lfoot -14.9069 4.49488
ltoes -5.78976
150
root -31.1965 17.5827 -1.88913 -25.6109 78.0546 -29.5747
lowerback 16.9696 -0.506918 -0.880634
upperback 7.52324 -0.327664 2.38216
thorax -1.46448 -0.0559641 3.06029
lowerneck -0.368813 5.11854 3.52161
upperneck 1.95312 6.95341 -6.88939
head 1.07714 3.44912 -2.70718
rclavicle 2.8128e-014 1.17283e-014
rhumerus -40.9886 19.9957 -82.2644
rradius 40.9158
rwrist -0.60584
rhand -2.56419 -17.0032
rfingers 7.12502
rthumb 23.1322 -45.6344
lclavicle 2.8128e-014 1.17283e-014
lhumerus -44.9509 -0.799767 81.7561
lradius 49.0098
lwrist 4.7524
lhand 0.670075 12.8272
lfingers 7.12502
lthumb 26.232 41.0341
rfemur 2.9034 -0.108979 27.6459
rtibia 14.0053
rfoot -19.8214 -20.1572
rtoes 0.828544
lfemur -25.674 5.88726 -13.4043
ltibia 39.2335
lfoot -15.1173 4.33863
ltoes -5.5339
151
root -31.1786 17.5772 -1.89019 -26.0759 78.0665 -30.1146
lowerback 17.0061 -0.482928 -0.856641
upperback 7.52237 -0.292367 2.3648
thorax -1.48704 -0.0371333 3.02241
lowerneck -0.432606 5.0987 3.55607
upperneck 1.9491 6.92293 -6.83484
head 1.08423 3.43323 -2.69419
rclavicle 1.88845e-014 -3.57812e-015
rhumerus -40.8882 20.0608 -82.2601
rradius 41.0321
rwrist -0.576886
rhand -2.55716 -16.9795
rfingers 7.12502
rthumb 23.1389 -45.6099
lclavicle 1.88845e-014 -3.57812e-015
lhumerus -44.9426 -0.80895 81.7088
lradius 48.9976
lwrist 4.76208
lhand 0.488849 12.8372
lfingers 7.12502
lthumb 26.0585 41.0698
rfemur 2.9466 -0.203389 27.7201
rtibia 13.9088
rfoot -19.854 -20.1205
rtoes 0.799965
lfemur -25.8385 5.90202 -13.3349
ltibia 39.5266
lfoot -15.3256 4.19386
ltoes -5.25188
